<svg xmlns="http://www.w3.org/2000/svg" width="18" height="18" viewBox="0 0 18 18">
  <defs>
    <style>
      .cls-1 {
        fill-rule: evenodd;
      }
    </style>
  </defs>
  <path id="icon-New" class="cls-1" d="M1268,94h-2v2a1,1,0,0,1-1,1h0a1,1,0,0,1-1-1V94h-2a1,1,0,0,1-1-1h0a1,1,0,0,1,1-1h2V90a1,1,0,0,1,1-1h0a1,1,0,0,1,1,1v2h2a1,1,0,0,1,1,1h0A1,1,0,0,1,1268,94Zm0-5a1,1,0,0,1-1-1V87h-13v7a1,1,0,0,0,1,1h5a1,1,0,0,1,0,2h-6a2,2,0,0,1-2-2V82a2,2,0,0,1,2-2h13a2,2,0,0,1,2,2v3h0v1h0v2A1,1,0,0,1,1268,89Zm-1-7h-13v3h13V82Z" transform="translate(-1251.5 -79.5)"/>
</svg>
