<svg xmlns="http://www.w3.org/2000/svg" width="18" height="18" viewBox="0 0 18 18">
  <defs>
    <style>
      .cls-1 {
        fill-rule: evenodd;
      }
    </style>
  </defs>
  <path id="icon-Refresh_" data-name="icon-Refresh " class="cls-1" d="M1286,338a7.967,7.967,0,0,1-7.12-4.417l2.04-.454A5.986,5.986,0,1,0,1286,324a5.875,5.875,0,0,0-3.14.917c1.02,1.019,1.94,1.942,2.02,2.019a0.388,0.388,0,0,1-.16.678c-0.27.062-5.72,1.275-6.19,1.378a0.44,0.44,0,0,1-.52-0.522c0.07-.337,1.29-5.808,1.38-6.2a0.386,0.386,0,0,1,.67-0.152c0.08,0.085.65,0.647,1.36,1.356A7.884,7.884,0,0,1,1286,322,8,8,0,0,1,1286,338Z" transform="translate(-1277 -321)"/>
</svg>
