<svg xmlns="http://www.w3.org/2000/svg" width="18" height="18" viewBox="0 0 18 18">
  <defs>
    <style>
      .cls-1 {
        fill-rule: evenodd;
      }
    </style>
  </defs>
  <path id="Icon-Reset" class="cls-1" d="M1369.66,88.908a0.5,0.5,0,0,1-.66-0.571V86h-8a1,1,0,1,1,0-2h8V81.676a0.511,0.511,0,0,1,.67-0.574c0.32,0.153,5.62,2.919,6.08,3.32a0.864,0.864,0,0,1,0,1.155C1375.42,85.87,1370.12,88.687,1369.66,88.908Zm-2.66.768V92h8a1,1,0,1,1,0,2h-8v2.337a0.507,0.507,0,0,1-.66.571c-0.45-.227-5.76-3.038-6.09-3.332a0.864,0.864,0,0,1,0-1.155c0.37-.321,3.85-2.16,5.38-2.958C1366.21,89.147,1366.98,88.6,1367,89.677Z" transform="translate(-1359 -80)"/>
</svg>
