<svg xmlns="http://www.w3.org/2000/svg" width="18" height="18" viewBox="0 0 18 18">
  <defs>
    <style>
      .cls-1 {
        fill-rule: evenodd;
      }
    </style>
  </defs>
  <path id="icon-Export" class="cls-1" d="M1340,87a1,1,0,0,1-1-1h0V83.444l-7.06,7.108a1.069,1.069,0,1,1-1.46-1.47L1337.51,82H1335a1,1,0,0,1,0-2h5c0.89,0,1,.083,1,1v5A1,1,0,0,1,1340,87Zm-9-5h-5a1,1,0,0,0-1,1V95a1,1,0,0,0,1,1h12a1,1,0,0,0,1-1V90a1,1,0,0,1,2,0h0v6a2,2,0,0,1-2,2h-14a2,2,0,0,1-2-2V82a2,2,0,0,1,2-2h6A1,1,0,0,1,1331,82Z" transform="translate(-1323 -80)"/>
</svg>
