<svg xmlns="http://www.w3.org/2000/svg" width="40" height="40" viewBox="0 0 40 40">
  <defs>
    <style>
      .cls-1 {
        fill: #fff;
        fill-rule: evenodd;
      }
    </style>
  </defs>
  <path id="Icon-Mechanism40_40" data-name="Icon-Mechanism40×40" class="cls-1" d="M264.872,82H263v9h0.5a0.5,0.5,0,0,1,0,1h1a0.5,0.5,0,0,1,0,1h1a0.5,0.5,0,0,1,0,1h-19a0.5,0.5,0,0,1,0-1h1a0.5,0.5,0,0,1,0-1h1a0.5,0.5,0,0,1,0-1H249V82h-1.9c-0.91,0-1.352-.426-0.952-0.751,0.545-.444,8.4-6.572,8.886-6.947a1.947,1.947,0,0,1,1.925,0c0.668,0.521,8.479,6.626,8.866,6.931C266.313,81.615,265.7,82,264.872,82ZM261,91V82h-2v9h2Zm-10,0h2V82h-2v9Zm4-9v9h2V82h-2Z" transform="translate(-236 -64.031)"/>
</svg>
