<svg xmlns="http://www.w3.org/2000/svg" width="8" height="10" viewBox="0 0 8 10">
  <defs>
    <style>
      .cls-1 {
        fill-rule: evenodd;
      }
    </style>
  </defs>
  <path id="icon-Advanced_Search" data-name="icon-Advanced Search" class="cls-1" d="M1221.33,88.818a0.462,0.462,0,0,1-.7,0l-3.51-3.877a0.576,0.576,0,0,1,0-.775,0.462,0.462,0,0,1,.7,0l3.16,3.489,3.15-3.489a0.473,0.473,0,0,1,.71,0,0.6,0.6,0,0,1,0,.775Zm-3.51.348,3.16,3.489,3.15-3.489a0.473,0.473,0,0,1,.71,0,0.6,0.6,0,0,1,0,.775l-3.51,3.877a0.462,0.462,0,0,1-.7,0l-3.51-3.877a0.576,0.576,0,0,1,0-.775A0.462,0.462,0,0,1,1217.82,89.165Z" transform="translate(-1217 -84)"/>
</svg>
