<svg xmlns="http://www.w3.org/2000/svg" width="6" height="10" viewBox="0 0 6 10">
  <defs>
    <style>
      .cls-1 {
        fill: #9498a5;
        fill-rule: evenodd;
      }
    </style>
  </defs>
  <path id="Icon-Sort-Normal" class="cls-1" d="M1269.33,134h5.34a0.31,0.31,0,0,0,.28-0.479c-0.11-.191-2.46-3.007-2.66-3.332a0.344,0.344,0,0,0-.58,0c-0.14.234-2.5,3.064-2.66,3.342A0.309,0.309,0,0,0,1269.33,134Zm0,2h5.34a0.312,0.312,0,0,1,.28.482c-0.11.192-2.46,3.032-2.66,3.359a0.342,0.342,0,0,1-.58,0c-0.14-.235-2.5-3.09-2.66-3.369A0.311,0.311,0,0,1,1269.33,136Z" transform="translate(-1269 -130.031)"/>
</svg>
