<svg xmlns="http://www.w3.org/2000/svg" width="40" height="40" viewBox="0 0 40 40">
  <defs>
    <style>
      .cls-1 {
        fill: #fff;
        fill-rule: evenodd;
      }
    </style>
  </defs>
  <path id="Icon-Message40_40" data-name="Icon-Message40×40" class="cls-1" d="M257.178,93.456C256.023,92.68,251,89,251,89V79l6.178-4.456C257.9,74.075,260,73.083,260,76V92C260,95.042,257.593,93.736,257.178,93.456ZM247,79h3V89h-3a1,1,0,0,1-1-1V80A1,1,0,0,1,247,79Zm15,4h3a1,1,0,0,1,0,2h-3A1,1,0,0,1,262,83Zm2.75-6.437-2.5.791A1.861,1.861,0,0,0,261,79c0,0.691.31,1.218,1,1l2.75-.937A1.861,1.861,0,0,0,266,77.417,0.884,0.884,0,0,0,264.75,76.563Zm0,14.866-2.5-.873A2.035,2.035,0,0,1,261,88.741a0.9,0.9,0,0,1,1.25-.943l2.5,0.873A2.037,2.037,0,0,1,266,90.487,0.9,0.9,0,0,1,264.75,91.43Z" transform="translate(-236 -63.984)"/>
</svg>
