<svg xmlns="http://www.w3.org/2000/svg" width="14" height="14" viewBox="0 0 14 14">
  <defs>
    <style>
      .cls-1 {
        fill-rule: evenodd;
      }
    </style>
  </defs>
  <path id="delete" class="cls-1" d="M1186.5,346H1185v10a1,1,0,0,1-1,1h-8a1,1,0,0,1-1-1V346h-1.5a0.5,0.5,0,0,1,0-1h3.5v-1.5a0.5,0.5,0,0,1,.5-0.5h5a0.5,0.5,0,0,1,.5.5V345h3.5A0.5,0.5,0,0,1,1186.5,346Zm-4.5-1.8a0.2,0.2,0,0,0-.2-0.2h-3.6a0.2,0.2,0,0,0-.2.2v0.6a0.2,0.2,0,0,0,.2.2h3.6a0.2,0.2,0,0,0,.2-0.2v-0.6Zm2,2.3a0.5,0.5,0,0,0-.5-0.5h-7a0.5,0.5,0,0,0-.5.5v9a0.5,0.5,0,0,0,.5.5h7a0.5,0.5,0,0,0,.5-0.5v-9Zm-2.5,8.5a0.5,0.5,0,0,1-.5-0.5v-7a0.5,0.5,0,0,1,1,0v7A0.5,0.5,0,0,1,1181.5,355Zm-3,0a0.5,0.5,0,0,1-.5-0.5v-7a0.5,0.5,0,0,1,1,0v7A0.5,0.5,0,0,1,1178.5,355Z" transform="translate(-1173 -343)"/>
</svg>
