<svg xmlns="http://www.w3.org/2000/svg" width="18" height="18" viewBox="0 0 18 18">
  <defs>
    <style>
      .cls-1 {
        fill-rule: evenodd;
      }
    </style>
  </defs>
  <path id="icon-Shelf" class="cls-1" d="M1294,250v5a2,2,0,0,1-2,2h-12a2,2,0,0,1-2-2v-5h0a1,1,0,0,1,2,0v5h12v-5a1,1,0,0,1,2,0h0Zm-4.89-3.337L1287,244.59V252a1,1,0,0,1-2,0v-7.436l-2.14,2.1a1.117,1.117,0,0,1-1.56,0,1.053,1.053,0,0,1,0-1.531l3.91-3.834a1.119,1.119,0,0,1,1.56,0l3.91,3.834a1.07,1.07,0,0,1,0,1.531A1.13,1.13,0,0,1,1289.11,246.663Z" transform="translate(-1277 -240)"/>
</svg>
